<?xml version="1.0" encoding="UTF-8" standalone="no"?>
<!DOCTYPE svg PUBLIC "-//W3C//DTD SVG 1.1//EN" "http://www.w3.org/Graphics/SVG/1.1/DTD/svg11.dtd">
<svg width="100%" height="100%" viewBox="0 0 500 375" version="1.1" xmlns="http://www.w3.org/2000/svg" xmlns:xlink="http://www.w3.org/1999/xlink" xml:space="preserve" xmlns:serif="http://www.serif.com/" style="fill-rule:evenodd;clip-rule:evenodd;stroke-linejoin:round;stroke-miterlimit:2;">
    <g transform="matrix(2.02851,0,0,2.02851,-257.24,-315.535)">
        <path d="M371.583,337.266C357.167,327.365 339.5,323.88 322.62,320.5C322.573,301.568 322.719,282.641 322.422,263.714L322.573,263.276C328.969,263.422 335.365,263.323 341.813,263.323C341.813,259.938 341.859,256.557 341.76,253.172C341.318,252.927 340.484,252.385 340.042,252.094C333.198,248.021 326.604,243.609 319.865,239.443C309.922,233.167 299.984,226.792 289.995,220.615C284.234,216.74 278.281,213.161 272.427,209.432C270.016,207.911 267.604,206.391 265.193,204.823C265.682,203.448 266.125,202.078 266.667,200.703C268.193,197.37 270.313,194.036 273.656,192.271C276.854,190.307 280.745,190.453 284.333,190.552C288.958,191.292 293.589,193.104 296.833,196.635C297.818,197.958 298.703,199.281 299.641,200.656C306.281,200.557 312.927,200.802 319.568,200.604C321.391,200.755 322.474,198.891 322.766,197.323C325.375,185.797 326.063,173.635 323.458,162.016C322.964,159.953 322.224,157.063 319.521,157.208C312.828,156.964 306.135,157.161 299.391,157.161C294.719,164.172 286.057,169.125 277.448,167.505C271.74,166.573 266.917,163.193 262.583,159.661C259.781,157.063 255.646,158.141 252.151,157.943C243,158.286 233.599,156.865 224.74,159.76C212.536,163.635 201.516,170.693 192.167,179.375C181.734,189.229 171.792,201.146 169.432,215.76C169.432,216.349 169.479,217.474 169.479,218.016C172.729,218.26 175.974,218.208 179.224,218.109C180.698,215.417 182.224,212.818 184.094,210.365C188.474,204.823 194.135,200.411 200.188,196.828C207.615,192.958 216.083,189.182 224.693,190.849C230.156,191.828 233.552,196.635 235.667,201.391C235.865,202.615 236.01,203.844 236.208,205.12C223.411,212.865 210.964,221.104 198.266,228.948C185.818,236.99 173.219,244.839 160.672,252.781L159.833,253.318C159.536,256.703 159.635,260.036 159.635,263.422C166.036,263.026 172.38,263.323 178.781,263.177C178.729,282.005 178.88,300.833 178.583,319.615L178.531,320.156C160.964,324.323 141.922,327.365 127.109,338.641C144.38,332.708 162.344,328.885 180.401,326.38C194.922,324.323 209.583,323.245 224.198,322.313C252.646,321.089 281.188,321.922 309.531,324.958C331.083,327.609 352.589,331.333 373.109,338.495C372.766,338.198 371.979,337.609 371.583,337.266ZM249.099,211.443C254.266,211.833 259.974,210.167 264.505,213.406C265.734,216.786 265.391,220.464 265.49,224.047C265.438,229.979 265.339,235.911 265.49,241.844C265.391,249.151 265.24,256.505 265.49,263.813C265.24,280.682 265.438,297.547 265.339,314.417C265.292,314.469 265.193,314.469 265.141,314.516L260.714,314.516C260.516,314.469 260.271,314.417 260.125,314.417C260.224,303.385 260.073,292.302 260.172,281.271C254.12,281.073 248.068,281.219 242.016,281.219C242.016,292.302 241.964,303.432 241.964,314.516L236.354,314.516C236.406,281.661 236.307,248.807 236.255,216.005C237.932,210.313 244.526,211.396 249.099,211.443ZM210.521,295.146C206.438,295.047 202.401,295.099 198.318,295.047L198.318,282.984C202.401,282.984 206.484,283.036 210.568,282.938C210.719,287.005 210.818,291.078 210.521,295.146ZM210.667,279.604C206.536,279.651 202.349,279.651 198.219,279.505C198.318,275.531 198.318,271.51 198.266,267.542C202.255,267.49 206.286,267.391 210.323,267.542C210.422,267.688 210.667,267.979 210.766,268.13C210.719,271.906 210.62,275.729 210.667,279.604ZM226.417,295.047L214.406,295.047C214.359,291.026 214.307,287.005 214.307,282.984L226.417,282.984C226.464,287.005 226.464,291.026 226.417,295.047ZM226.464,279.604C222.479,279.552 218.49,279.552 214.505,279.651C214.359,275.776 214.307,271.854 214.208,267.979L214.406,267.443C218.49,267.589 222.578,267.589 226.661,267.589L226.807,267.932C226.417,271.807 226.417,275.729 226.464,279.604ZM287.974,295.245L275.281,295.245L275.281,282.594L287.974,282.594L287.974,295.245ZM287.974,279.896L275.281,279.896L275.281,267.245L287.974,267.245L287.974,279.896ZM303.87,295.245L291.177,295.245L291.177,282.594L303.87,282.594L303.87,295.245ZM303.87,279.896L291.177,279.896L291.177,267.245L303.87,267.245L303.87,279.896Z" style="fill-rule:nonzero;"/>
    </g>
</svg>
