<?xml version="1.0" encoding="UTF-8" standalone="no"?>
<!DOCTYPE svg PUBLIC "-//W3C//DTD SVG 1.1//EN" "http://www.w3.org/Graphics/SVG/1.1/DTD/svg11.dtd">
<svg width="100%" height="100%" viewBox="0 0 500 500" version="1.1" xmlns="http://www.w3.org/2000/svg" xmlns:xlink="http://www.w3.org/1999/xlink" xml:space="preserve" xmlns:serif="http://www.serif.com/" style="fill-rule:evenodd;clip-rule:evenodd;stroke-linejoin:round;stroke-miterlimit:2;">
    <g>
        <path d="M371.583,337.266C357.167,327.365 339.5,323.88 322.62,320.5C322.573,301.568 322.719,282.641 322.422,263.714L322.573,263.276C328.969,263.422 335.365,263.323 341.813,263.323C341.813,259.938 341.859,256.557 341.76,253.172C341.318,252.927 340.484,252.385 340.042,252.094C333.198,248.021 326.604,243.609 319.865,239.443C309.922,233.167 299.984,226.792 289.995,220.615C284.234,216.74 278.281,213.161 272.427,209.432C270.016,207.911 267.604,206.391 265.193,204.823C265.682,203.448 266.125,202.078 266.667,200.703C268.193,197.37 270.313,194.036 273.656,192.271C276.854,190.307 280.745,190.453 284.333,190.552C288.958,191.292 293.589,193.104 296.833,196.635C297.818,197.958 298.703,199.281 299.641,200.656C306.281,200.557 312.927,200.802 319.568,200.604C321.391,200.755 322.474,198.891 322.766,197.323C325.375,185.797 326.063,173.635 323.458,162.016C322.964,159.953 322.224,157.063 319.521,157.208C312.828,156.964 306.135,157.161 299.391,157.161C294.719,164.172 286.057,169.125 277.448,167.505C271.74,166.573 266.917,163.193 262.583,159.661C259.781,157.063 255.646,158.141 252.151,157.943C243,158.286 233.599,156.865 224.74,159.76C212.536,163.635 201.516,170.693 192.167,179.375C181.734,189.229 171.792,201.146 169.432,215.76C169.432,216.349 169.479,217.474 169.479,218.016C172.729,218.26 175.974,218.208 179.224,218.109C180.698,215.417 182.224,212.818 184.094,210.365C188.474,204.823 194.135,200.411 200.188,196.828C207.615,192.958 216.083,189.182 224.693,190.849C230.156,191.828 233.552,196.635 235.667,201.391C235.865,202.615 236.01,203.844 236.208,205.12C223.411,212.865 210.964,221.104 198.266,228.948C185.818,236.99 173.219,244.839 160.672,252.781L159.833,253.318C159.536,256.703 159.635,260.036 159.635,263.422C166.036,263.026 172.38,263.323 178.781,263.177C178.729,282.005 178.88,300.833 178.583,319.615L178.531,320.156C160.964,324.323 141.922,327.365 127.109,338.641C144.38,332.708 162.344,328.885 180.401,326.38C194.922,324.323 209.583,323.245 224.198,322.313C252.646,321.089 281.188,321.922 309.531,324.958C331.083,327.609 352.589,331.333 373.109,338.495C372.766,338.198 371.979,337.609 371.583,337.266ZM249.099,211.443C254.266,211.833 259.974,210.167 264.505,213.406C265.734,216.786 265.391,220.464 265.49,224.047C265.438,229.979 265.339,235.911 265.49,241.844C265.391,249.151 265.24,256.505 265.49,263.813C265.24,280.682 265.438,297.547 265.339,314.417C265.292,314.469 265.193,314.469 265.141,314.516L260.714,314.516C260.516,314.469 260.271,314.417 260.125,314.417C260.224,303.385 260.073,292.302 260.172,281.271C254.12,281.073 248.068,281.219 242.016,281.219C242.016,292.302 241.964,303.432 241.964,314.516L236.354,314.516C236.406,281.661 236.307,248.807 236.255,216.005C237.932,210.313 244.526,211.396 249.099,211.443ZM210.521,295.146C206.438,295.047 202.401,295.099 198.318,295.047L198.318,282.984C202.401,282.984 206.484,283.036 210.568,282.938C210.719,287.005 210.818,291.078 210.521,295.146ZM210.667,279.604C206.536,279.651 202.349,279.651 198.219,279.505C198.318,275.531 198.318,271.51 198.266,267.542C202.255,267.49 206.286,267.391 210.323,267.542C210.422,267.688 210.667,267.979 210.766,268.13C210.719,271.906 210.62,275.729 210.667,279.604ZM226.417,295.047L214.406,295.047C214.359,291.026 214.307,287.005 214.307,282.984L226.417,282.984C226.464,287.005 226.464,291.026 226.417,295.047ZM226.464,279.604C222.479,279.552 218.49,279.552 214.505,279.651C214.359,275.776 214.307,271.854 214.208,267.979L214.406,267.443C218.49,267.589 222.578,267.589 226.661,267.589L226.807,267.932C226.417,271.807 226.417,275.729 226.464,279.604ZM287.974,295.245L275.281,295.245L275.281,282.594L287.974,282.594L287.974,295.245ZM287.974,279.896L275.281,279.896L275.281,267.245L287.974,267.245L287.974,279.896ZM303.87,295.245L291.177,295.245L291.177,282.594L303.87,282.594L303.87,295.245ZM303.87,279.896L291.177,279.896L291.177,267.245L303.87,267.245L303.87,279.896Z" style="fill:rgb(219,173,67);fill-rule:nonzero;"/>
    </g>
    <g transform="matrix(1,0,0,1,124.329,367.313)">
        <g>
            <g>
                <path d="M1.354,-1.604C2.188,-1.771 2.74,-2.021 3.021,-2.354C3.313,-2.687 3.458,-3.26 3.458,-4.083L3.458,-15.437C3.458,-16.031 3.385,-16.437 3.25,-16.646C3.109,-16.854 2.823,-16.958 2.396,-16.958L1.521,-16.917L1.375,-17.167L1.583,-18.854L5.083,-18.833C5.833,-18.833 7.281,-18.901 9.438,-19.042L9.271,-17.104C8.755,-17.021 8.385,-16.917 8.167,-16.792C7.943,-16.667 7.781,-16.469 7.688,-16.208C7.604,-15.958 7.542,-15.547 7.5,-14.979L7.333,-10.771L11.167,-10.708C12.193,-10.708 13.359,-10.776 14.667,-10.917L14.667,-15.437C14.667,-16.031 14.594,-16.437 14.458,-16.646C14.318,-16.854 14.031,-16.958 13.604,-16.958L12.708,-16.917L12.563,-17.167L12.792,-18.854L16.479,-18.833C17.13,-18.833 18.547,-18.901 20.729,-19.042L20.583,-17.125C19.859,-17.026 19.385,-16.875 19.167,-16.667C18.943,-16.469 18.813,-16.089 18.771,-15.521C18.672,-13.797 18.589,-11.818 18.521,-9.583C18.448,-7.359 18.417,-5.49 18.417,-3.979C18.417,-3.156 18.5,-2.604 18.667,-2.312C18.833,-2.021 19.151,-1.875 19.625,-1.875C19.833,-1.875 20.198,-1.901 20.729,-1.958L20.854,-1.75L20.583,0.083C20.318,0.083 20.115,0.073 19.979,0.063C18.49,0.021 17.292,0 16.375,0L12.313,0.063L12.563,-1.812C13.115,-1.839 13.547,-1.927 13.854,-2.083C14.156,-2.234 14.365,-2.5 14.479,-2.875C14.604,-3.26 14.667,-3.818 14.667,-4.542L14.667,-8.333L11.438,-8.354C11.005,-8.354 10.417,-8.323 9.667,-8.271C8.927,-8.214 8.13,-8.146 7.271,-8.062L7.188,-3.875C7.188,-3.068 7.26,-2.526 7.417,-2.25C7.568,-1.984 7.875,-1.854 8.333,-1.854C8.526,-1.854 8.885,-1.88 9.417,-1.937L9.563,-1.75L9.292,0.083C7.885,0.026 6.714,0 5.771,0C5.115,0 4.302,0.026 3.333,0.083C2.359,0.135 1.63,0.198 1.146,0.271L1.354,-1.604Z" style="fill:rgb(50,55,59);fill-rule:nonzero;"/>
            </g>
        </g>
    </g>
    <g transform="matrix(1,0,0,1,146.237,367.313)">
        <g>
            <g>
                <path d="M9.25,0.354C7.526,0.354 6.031,-0.021 4.771,-0.771C3.505,-1.531 2.531,-2.604 1.854,-3.979C1.188,-5.365 0.854,-7.01 0.854,-8.917C0.854,-10.943 1.25,-12.729 2.042,-14.271C2.844,-15.823 3.979,-17.031 5.438,-17.896C6.896,-18.755 8.573,-19.187 10.479,-19.187C12.229,-19.187 13.74,-18.818 15.021,-18.083C16.313,-17.344 17.292,-16.292 17.958,-14.917C18.635,-13.542 18.979,-11.901 18.979,-10C18.979,-7.969 18.568,-6.167 17.75,-4.583C16.943,-3.01 15.802,-1.797 14.333,-0.937C12.859,-0.073 11.167,0.354 9.25,0.354ZM10,-2.146C11.417,-2.146 12.521,-2.693 13.313,-3.792C14.104,-4.901 14.5,-6.464 14.5,-8.479C14.5,-11.031 14.073,-12.99 13.229,-14.354C12.38,-15.714 11.188,-16.396 9.646,-16.396C8.255,-16.396 7.172,-15.839 6.396,-14.729C5.63,-13.63 5.25,-12.073 5.25,-10.062C5.25,-7.49 5.667,-5.526 6.5,-4.167C7.333,-2.818 8.5,-2.146 10,-2.146Z" style="fill:rgb(50,55,59);fill-rule:nonzero;"/>
            </g>
        </g>
    </g>
    <g transform="matrix(1,0,0,1,166.033,367.313)">
        <g>
            <g>
                <path d="M15.458,0.792C13.542,-2.26 11.609,-5.234 9.667,-8.125C7.719,-11.01 6.75,-12.443 6.75,-12.417L6.479,-12.417L6.458,-3.167C6.458,-2.651 6.526,-2.302 6.667,-2.125C6.818,-1.943 7.083,-1.854 7.458,-1.854L8.75,-1.917L8.896,-1.729L8.604,0.125C8.323,0.094 7.813,0.068 7.063,0.042C6.323,0.01 5.583,0 4.833,0C4.193,0 3.5,0.031 2.75,0.104C2.01,0.172 1.531,0.214 1.313,0.229L1.521,-1.708C2.13,-1.776 2.568,-1.948 2.833,-2.229C3.109,-2.521 3.26,-2.958 3.292,-3.542L3.646,-15.187C3.646,-15.812 3.484,-16.25 3.167,-16.5C2.859,-16.76 2.229,-16.943 1.271,-17.042L1.063,-17.312L1.271,-18.979C1.479,-18.964 1.927,-18.937 2.625,-18.896C3.333,-18.854 3.99,-18.833 4.604,-18.833C5.115,-18.833 5.656,-18.844 6.229,-18.875C6.813,-18.901 7.188,-18.927 7.354,-18.958C8.964,-16.333 10.693,-13.63 12.542,-10.854C14.385,-8.073 15.313,-6.708 15.313,-6.75L15.604,-6.75L15.542,-15.687C15.526,-16.146 15.443,-16.469 15.292,-16.667C15.151,-16.859 14.917,-16.958 14.583,-16.958L13.542,-16.917L13.458,-17.125L13.667,-18.958C13.943,-18.927 14.443,-18.901 15.167,-18.875C15.901,-18.844 16.646,-18.833 17.396,-18.833C17.979,-18.833 18.635,-18.854 19.375,-18.896C20.109,-18.937 20.594,-18.964 20.833,-18.979L20.688,-17.042C20.021,-16.943 19.542,-16.755 19.25,-16.479C18.969,-16.214 18.823,-15.781 18.813,-15.187L18.417,0.417L15.458,0.792Z" style="fill:rgb(50,55,59);fill-rule:nonzero;"/>
            </g>
        </g>
    </g>
    <g transform="matrix(1,0,0,1,187.384,367.313)">
        <g>
            <g>
                <path d="M16.333,-5.542C16.026,-4.01 15.76,-2.208 15.542,-0.125L15.25,0.208C11.51,0.068 8.469,0 6.125,0C4.484,0 2.818,0.094 1.125,0.292L1.313,-1.667C2.13,-1.792 2.688,-2.026 2.979,-2.375C3.281,-2.719 3.438,-3.323 3.438,-4.187L3.458,-15.375C3.458,-16.01 3.396,-16.437 3.271,-16.646C3.156,-16.854 2.906,-16.958 2.521,-16.958C2.271,-16.958 1.964,-16.937 1.604,-16.896L1.438,-17.167L1.667,-18.917L2.25,-18.917C3.635,-18.859 5.214,-18.833 6.979,-18.833C11.339,-18.833 14.313,-18.948 15.896,-19.187L16.125,-18.854C15.969,-18.13 15.833,-17.271 15.708,-16.271C15.583,-15.281 15.5,-14.375 15.458,-13.542L12.854,-13.375L12.917,-14.542C12.917,-15.135 12.833,-15.552 12.667,-15.792C12.5,-16.042 12.167,-16.208 11.667,-16.292C11.167,-16.375 10.323,-16.417 9.146,-16.417C8.646,-16.417 8.297,-16.396 8.104,-16.354C7.906,-16.323 7.776,-16.24 7.708,-16.104C7.635,-15.964 7.589,-15.74 7.563,-15.437L7.354,-10.833L10.125,-10.792C10.526,-10.792 11.031,-10.812 11.646,-10.854C12.271,-10.906 12.896,-10.979 13.521,-11.062L13.75,-10.792L13.354,-8.292C13.089,-8.292 12.885,-8.302 12.75,-8.333C11.385,-8.375 10.302,-8.396 9.5,-8.396C8.901,-8.396 8.151,-8.333 7.25,-8.208L7.188,-4.021C7.188,-3.464 7.229,-3.068 7.313,-2.833C7.406,-2.609 7.573,-2.458 7.813,-2.375C8.063,-2.292 8.484,-2.25 9.083,-2.25C10.375,-2.25 11.302,-2.323 11.875,-2.479C12.458,-2.63 12.875,-2.927 13.125,-3.375C13.385,-3.818 13.589,-4.562 13.729,-5.604L16.125,-5.812L16.333,-5.542Z" style="fill:rgb(50,55,59);fill-rule:nonzero;"/>
            </g>
        </g>
    </g>
    <g transform="matrix(1,0,0,1,204.864,367.313)">
        <g>
            <g>
                <path d="M4.188,-1.646C4.979,-1.74 5.552,-1.88 5.917,-2.062C6.276,-2.255 6.521,-2.521 6.646,-2.854C6.771,-3.198 6.833,-3.729 6.833,-4.437L6.833,-5.333C6.833,-5.859 6.771,-6.339 6.646,-6.771C6.531,-7.198 6.313,-7.729 5.979,-8.354L3.104,-13.937C2.615,-14.937 2.156,-15.635 1.729,-16.042C1.297,-16.458 0.646,-16.74 -0.229,-16.896L-0.292,-17.042L-0.083,-18.896C0.177,-18.896 0.688,-18.88 1.438,-18.854C2.198,-18.823 2.943,-18.812 3.667,-18.812C4.292,-18.812 5.135,-18.839 6.208,-18.896C7.292,-18.964 8.005,-19.01 8.354,-19.042L8.479,-18.771L8.333,-17.125C7.667,-17.083 7.198,-16.99 6.938,-16.854C6.672,-16.729 6.542,-16.521 6.542,-16.229C6.542,-15.854 7.208,-14.234 8.542,-11.375C8.927,-10.484 9.109,-10.052 9.083,-10.083L9.354,-10.083L11.729,-15.021C12.021,-15.604 12.167,-16.062 12.167,-16.396C12.167,-16.615 12.042,-16.776 11.792,-16.875C11.552,-16.984 11.172,-17.062 10.646,-17.104L10.583,-17.25L10.792,-18.917L12.208,-18.854C13.26,-18.823 14.083,-18.812 14.667,-18.812C15.208,-18.812 15.792,-18.823 16.417,-18.854C17.052,-18.88 17.458,-18.901 17.625,-18.917L17.75,-18.708L17.542,-16.958C16.76,-16.708 16.135,-16.323 15.667,-15.812C15.208,-15.297 14.635,-14.427 13.958,-13.208L11.167,-7.958C10.901,-7.458 10.74,-6.948 10.688,-6.437C10.646,-5.937 10.625,-5.01 10.625,-3.667C10.625,-3.026 10.719,-2.573 10.917,-2.312C11.109,-2.047 11.458,-1.917 11.958,-1.917C12.318,-1.917 12.63,-1.922 12.896,-1.937C13.156,-1.948 13.339,-1.969 13.438,-2L13.542,-1.854L13.292,0.125C12.927,0.094 12.271,0.068 11.313,0.042C10.354,0.01 9.417,0 8.5,0C7.802,0 6.958,0.042 5.958,0.125C4.958,0.219 4.297,0.281 3.979,0.313L4.188,-1.646Z" style="fill:rgb(50,55,59);fill-rule:nonzero;"/>
            </g>
        </g>
    </g>
    <g transform="matrix(1,0,0,1,222.285,367.313)">
        <g>
            <g>
                <path d="M9.333,0.354C9.01,0.313 8.365,0.24 7.396,0.146C6.438,0.047 5.604,0 4.896,0C4.255,0 3.531,0.031 2.729,0.104C1.922,0.188 1.401,0.25 1.167,0.292L1.354,-1.667C2.188,-1.802 2.75,-2.047 3.042,-2.396C3.344,-2.755 3.5,-3.344 3.5,-4.167L3.5,-15.333C3.5,-15.958 3.438,-16.375 3.313,-16.583C3.198,-16.802 2.958,-16.917 2.583,-16.917C2.359,-16.917 2.151,-16.906 1.958,-16.896C1.76,-16.88 1.635,-16.875 1.583,-16.875L1.438,-17.125L1.667,-18.917C1.943,-18.917 2.448,-18.901 3.188,-18.875C3.938,-18.844 4.667,-18.833 5.375,-18.833C6.234,-18.833 7.13,-18.844 8.063,-18.875C9.005,-18.901 9.651,-18.927 10,-18.958C11.958,-18.958 13.646,-18.604 15.063,-17.896C16.49,-17.187 17.589,-16.177 18.354,-14.875C19.115,-13.568 19.5,-12.005 19.5,-10.187C19.5,-8.146 19.063,-6.318 18.188,-4.708C17.323,-3.109 16.125,-1.865 14.583,-0.979C13.042,-0.089 11.292,0.354 9.333,0.354ZM8.417,-16.479C8.109,-16.479 7.896,-16.427 7.771,-16.333C7.656,-16.234 7.589,-16.052 7.563,-15.792C7.313,-10.333 7.188,-6.484 7.188,-4.25C7.188,-3.667 7.255,-3.219 7.396,-2.917C7.531,-2.609 7.781,-2.396 8.146,-2.271C8.505,-2.156 9.026,-2.104 9.708,-2.104C11.427,-2.104 12.74,-2.708 13.646,-3.917C14.563,-5.135 15.021,-6.922 15.021,-9.271C15.021,-11.755 14.479,-13.573 13.396,-14.729C12.313,-15.896 10.651,-16.479 8.417,-16.479Z" style="fill:rgb(50,55,59);fill-rule:nonzero;"/>
            </g>
        </g>
    </g>
    <g transform="matrix(1,0,0,1,242.638,367.313)">
        <g>
            <g>
                <path d="M9.25,0.354C7.526,0.354 6.031,-0.021 4.771,-0.771C3.505,-1.531 2.531,-2.604 1.854,-3.979C1.188,-5.365 0.854,-7.01 0.854,-8.917C0.854,-10.943 1.25,-12.729 2.042,-14.271C2.844,-15.823 3.979,-17.031 5.438,-17.896C6.896,-18.755 8.573,-19.187 10.479,-19.187C12.229,-19.187 13.74,-18.818 15.021,-18.083C16.313,-17.344 17.292,-16.292 17.958,-14.917C18.635,-13.542 18.979,-11.901 18.979,-10C18.979,-7.969 18.568,-6.167 17.75,-4.583C16.943,-3.01 15.802,-1.797 14.333,-0.937C12.859,-0.073 11.167,0.354 9.25,0.354ZM10,-2.146C11.417,-2.146 12.521,-2.693 13.313,-3.792C14.104,-4.901 14.5,-6.464 14.5,-8.479C14.5,-11.031 14.073,-12.99 13.229,-14.354C12.38,-15.714 11.188,-16.396 9.646,-16.396C8.255,-16.396 7.172,-15.839 6.396,-14.729C5.63,-13.63 5.25,-12.073 5.25,-10.062C5.25,-7.49 5.667,-5.526 6.5,-4.167C7.333,-2.818 8.5,-2.146 10,-2.146Z" style="fill:rgb(50,55,59);fill-rule:nonzero;"/>
            </g>
        </g>
    </g>
    <g transform="matrix(1,0,0,1,267.538,367.313)">
        <g>
            <g>
                <path d="M1.354,-1.604C2.188,-1.771 2.74,-2.021 3.021,-2.354C3.313,-2.687 3.458,-3.26 3.458,-4.083L3.458,-15.437C3.458,-16.031 3.385,-16.437 3.25,-16.646C3.109,-16.854 2.823,-16.958 2.396,-16.958L1.521,-16.917L1.375,-17.167L1.583,-18.854L5.083,-18.833C5.833,-18.833 7.281,-18.901 9.438,-19.042L9.271,-17.104C8.755,-17.021 8.385,-16.917 8.167,-16.792C7.943,-16.667 7.781,-16.469 7.688,-16.208C7.604,-15.958 7.542,-15.547 7.5,-14.979L7.333,-10.771L11.167,-10.708C12.193,-10.708 13.359,-10.776 14.667,-10.917L14.667,-15.437C14.667,-16.031 14.594,-16.437 14.458,-16.646C14.318,-16.854 14.031,-16.958 13.604,-16.958L12.708,-16.917L12.563,-17.167L12.792,-18.854L16.479,-18.833C17.13,-18.833 18.547,-18.901 20.729,-19.042L20.583,-17.125C19.859,-17.026 19.385,-16.875 19.167,-16.667C18.943,-16.469 18.813,-16.089 18.771,-15.521C18.672,-13.797 18.589,-11.818 18.521,-9.583C18.448,-7.359 18.417,-5.49 18.417,-3.979C18.417,-3.156 18.5,-2.604 18.667,-2.312C18.833,-2.021 19.151,-1.875 19.625,-1.875C19.833,-1.875 20.198,-1.901 20.729,-1.958L20.854,-1.75L20.583,0.083C20.318,0.083 20.115,0.073 19.979,0.063C18.49,0.021 17.292,0 16.375,0L12.313,0.063L12.563,-1.812C13.115,-1.839 13.547,-1.927 13.854,-2.083C14.156,-2.234 14.365,-2.5 14.479,-2.875C14.604,-3.26 14.667,-3.818 14.667,-4.542L14.667,-8.333L11.438,-8.354C11.005,-8.354 10.417,-8.323 9.667,-8.271C8.927,-8.214 8.13,-8.146 7.271,-8.062L7.188,-3.875C7.188,-3.068 7.26,-2.526 7.417,-2.25C7.568,-1.984 7.875,-1.854 8.333,-1.854C8.526,-1.854 8.885,-1.88 9.417,-1.937L9.563,-1.75L9.292,0.083C7.885,0.026 6.714,0 5.771,0C5.115,0 4.302,0.026 3.333,0.083C2.359,0.135 1.63,0.198 1.146,0.271L1.354,-1.604Z" style="fill:rgb(50,55,59);fill-rule:nonzero;"/>
            </g>
        </g>
    </g>
    <g transform="matrix(1,0,0,1,289.446,367.313)">
        <g>
            <g>
                <path d="M16.333,-5.542C16.026,-4.01 15.76,-2.208 15.542,-0.125L15.25,0.208C11.51,0.068 8.469,0 6.125,0C4.484,0 2.818,0.094 1.125,0.292L1.313,-1.667C2.13,-1.792 2.688,-2.026 2.979,-2.375C3.281,-2.719 3.438,-3.323 3.438,-4.187L3.458,-15.375C3.458,-16.01 3.396,-16.437 3.271,-16.646C3.156,-16.854 2.906,-16.958 2.521,-16.958C2.271,-16.958 1.964,-16.937 1.604,-16.896L1.438,-17.167L1.667,-18.917L2.25,-18.917C3.635,-18.859 5.214,-18.833 6.979,-18.833C11.339,-18.833 14.313,-18.948 15.896,-19.187L16.125,-18.854C15.969,-18.13 15.833,-17.271 15.708,-16.271C15.583,-15.281 15.5,-14.375 15.458,-13.542L12.854,-13.375L12.917,-14.542C12.917,-15.135 12.833,-15.552 12.667,-15.792C12.5,-16.042 12.167,-16.208 11.667,-16.292C11.167,-16.375 10.323,-16.417 9.146,-16.417C8.646,-16.417 8.297,-16.396 8.104,-16.354C7.906,-16.323 7.776,-16.24 7.708,-16.104C7.635,-15.964 7.589,-15.74 7.563,-15.437L7.354,-10.833L10.125,-10.792C10.526,-10.792 11.031,-10.812 11.646,-10.854C12.271,-10.906 12.896,-10.979 13.521,-11.062L13.75,-10.792L13.354,-8.292C13.089,-8.292 12.885,-8.302 12.75,-8.333C11.385,-8.375 10.302,-8.396 9.5,-8.396C8.901,-8.396 8.151,-8.333 7.25,-8.208L7.188,-4.021C7.188,-3.464 7.229,-3.068 7.313,-2.833C7.406,-2.609 7.573,-2.458 7.813,-2.375C8.063,-2.292 8.484,-2.25 9.083,-2.25C10.375,-2.25 11.302,-2.323 11.875,-2.479C12.458,-2.63 12.875,-2.927 13.125,-3.375C13.385,-3.818 13.589,-4.562 13.729,-5.604L16.125,-5.812L16.333,-5.542Z" style="fill:rgb(50,55,59);fill-rule:nonzero;"/>
            </g>
        </g>
    </g>
    <g transform="matrix(1,0,0,1,306.926,367.313)">
        <g>
            <g>
                <path d="M1.5,-1.667C2.234,-1.792 2.74,-2.026 3.021,-2.375C3.297,-2.719 3.438,-3.323 3.438,-4.187L3.458,-15.437C3.458,-16.031 3.385,-16.437 3.25,-16.646C3.109,-16.854 2.823,-16.958 2.396,-16.958L1.5,-16.917L1.354,-17.167L1.583,-18.854L5.521,-18.833C6.063,-18.833 6.854,-18.859 7.896,-18.917C8.948,-18.969 9.646,-19.01 9.979,-19.042L9.771,-17.021C9.104,-16.937 8.615,-16.818 8.313,-16.667C8.005,-16.526 7.813,-16.323 7.729,-16.062C7.646,-15.797 7.583,-15.38 7.542,-14.812C7.318,-11.88 7.208,-8.292 7.208,-4.042C7.208,-3.51 7.255,-3.125 7.354,-2.875C7.448,-2.635 7.625,-2.469 7.875,-2.375C8.135,-2.292 8.531,-2.25 9.063,-2.25C10.031,-2.25 10.755,-2.354 11.229,-2.562C11.714,-2.781 12.073,-3.198 12.313,-3.812C12.547,-4.422 12.75,-5.38 12.917,-6.687L15.292,-6.958L15.479,-6.667C15.422,-6.292 15.313,-5.448 15.146,-4.146C14.979,-2.854 14.839,-1.49 14.729,-0.062L14.438,0.229C13.906,0.214 12.76,0.172 11,0.104C9.234,0.031 7.635,0 6.208,0C5.135,0 4.109,0.031 3.125,0.104C2.151,0.188 1.531,0.25 1.271,0.292L1.5,-1.667Z" style="fill:rgb(50,55,59);fill-rule:nonzero;"/>
            </g>
        </g>
    </g>
    <g transform="matrix(1,0,0,1,322.47,367.313)">
        <g>
            <g>
                <path d="M1.438,-1.708C2.24,-1.844 2.776,-2.073 3.042,-2.396C3.318,-2.729 3.458,-3.318 3.458,-4.167L3.458,-15.375C3.458,-16 3.396,-16.417 3.271,-16.625C3.146,-16.844 2.896,-16.958 2.521,-16.958C2.313,-16.958 2.104,-16.943 1.896,-16.917C1.698,-16.901 1.573,-16.896 1.521,-16.896L1.354,-17.125L1.583,-18.854L5.271,-18.833C6.021,-18.833 6.844,-18.844 7.75,-18.875C8.667,-18.901 9.313,-18.927 9.688,-18.958C12.188,-18.958 13.984,-18.427 15.083,-17.375C16.177,-16.318 16.729,-14.979 16.729,-13.354C16.729,-12.198 16.396,-11.109 15.729,-10.083C15.073,-9.052 14.208,-8.229 13.125,-7.604C12.052,-6.99 10.917,-6.687 9.708,-6.687L7.25,-6.687L7.188,-4.458C7.188,-3.693 7.219,-3.13 7.292,-2.771C7.359,-2.422 7.484,-2.187 7.667,-2.062C7.859,-1.937 8.156,-1.875 8.563,-1.875C8.839,-1.875 9.104,-1.88 9.354,-1.896C9.604,-1.922 9.776,-1.937 9.875,-1.937L9.979,-1.792L9.708,0.083C9.427,0.083 8.922,0.068 8.188,0.042C7.464,0.01 6.755,0 6.063,0C5.406,0 4.526,0.026 3.417,0.083C2.302,0.135 1.568,0.188 1.208,0.229L1.438,-1.708ZM9.917,-8.896C11.734,-9.281 12.646,-10.625 12.646,-12.917C12.646,-14.167 12.292,-15.073 11.583,-15.646C10.875,-16.229 9.76,-16.521 8.25,-16.521C7.969,-16.521 7.797,-16.49 7.729,-16.437C7.656,-16.396 7.615,-16.255 7.604,-16.021C7.479,-14.255 7.38,-12.005 7.313,-9.271L9.917,-8.896Z" style="fill:rgb(50,55,59);fill-rule:nonzero;"/>
            </g>
        </g>
    </g>
    <g transform="matrix(1,0,0,1,339.363,367.313)">
        <g>
            <g>
                <path d="M16.333,-5.542C16.026,-4.01 15.76,-2.208 15.542,-0.125L15.25,0.208C11.51,0.068 8.469,0 6.125,0C4.484,0 2.818,0.094 1.125,0.292L1.313,-1.667C2.13,-1.792 2.688,-2.026 2.979,-2.375C3.281,-2.719 3.438,-3.323 3.438,-4.187L3.458,-15.375C3.458,-16.01 3.396,-16.437 3.271,-16.646C3.156,-16.854 2.906,-16.958 2.521,-16.958C2.271,-16.958 1.964,-16.937 1.604,-16.896L1.438,-17.167L1.667,-18.917L2.25,-18.917C3.635,-18.859 5.214,-18.833 6.979,-18.833C11.339,-18.833 14.313,-18.948 15.896,-19.187L16.125,-18.854C15.969,-18.13 15.833,-17.271 15.708,-16.271C15.583,-15.281 15.5,-14.375 15.458,-13.542L12.854,-13.375L12.917,-14.542C12.917,-15.135 12.833,-15.552 12.667,-15.792C12.5,-16.042 12.167,-16.208 11.667,-16.292C11.167,-16.375 10.323,-16.417 9.146,-16.417C8.646,-16.417 8.297,-16.396 8.104,-16.354C7.906,-16.323 7.776,-16.24 7.708,-16.104C7.635,-15.964 7.589,-15.74 7.563,-15.437L7.354,-10.833L10.125,-10.792C10.526,-10.792 11.031,-10.812 11.646,-10.854C12.271,-10.906 12.896,-10.979 13.521,-11.062L13.75,-10.792L13.354,-8.292C13.089,-8.292 12.885,-8.302 12.75,-8.333C11.385,-8.375 10.302,-8.396 9.5,-8.396C8.901,-8.396 8.151,-8.333 7.25,-8.208L7.188,-4.021C7.188,-3.464 7.229,-3.068 7.313,-2.833C7.406,-2.609 7.573,-2.458 7.813,-2.375C8.063,-2.292 8.484,-2.25 9.083,-2.25C10.375,-2.25 11.302,-2.323 11.875,-2.479C12.458,-2.63 12.875,-2.927 13.125,-3.375C13.385,-3.818 13.589,-4.562 13.729,-5.604L16.125,-5.812L16.333,-5.542Z" style="fill:rgb(50,55,59);fill-rule:nonzero;"/>
            </g>
        </g>
    </g>
    <g transform="matrix(1,0,0,1,356.842,367.313)">
        <path d="M15.083,0.479C13.802,0.479 12.734,-0.427 11.875,-2.25L9.333,-7.417L7.25,-7.417L7.188,-4.104C7.188,-3.422 7.234,-2.927 7.333,-2.625C7.427,-2.318 7.609,-2.115 7.875,-2.021C8.151,-1.922 8.625,-1.865 9.292,-1.854L9.396,-1.667L9.125,0.125C8.776,0.094 8.156,0.068 7.271,0.042C6.396,0.026 5.583,0.021 4.833,0.021C4.109,0.021 3.365,0.042 2.604,0.083C1.839,0.125 1.344,0.151 1.125,0.167L1.375,-1.75C2.193,-1.859 2.74,-2.073 3.021,-2.396C3.313,-2.729 3.458,-3.318 3.458,-4.167L3.458,-15.521C3.458,-16.089 3.396,-16.469 3.271,-16.667C3.146,-16.859 2.896,-16.958 2.521,-16.958C2.313,-16.958 2.104,-16.943 1.896,-16.917C1.698,-16.901 1.573,-16.896 1.521,-16.896L1.354,-17.125L1.604,-18.896C1.88,-18.896 2.385,-18.88 3.125,-18.854C3.859,-18.839 4.573,-18.833 5.271,-18.833C6.063,-18.833 6.906,-18.844 7.813,-18.875C8.729,-18.901 9.359,-18.927 9.708,-18.958C11.943,-18.958 13.651,-18.526 14.833,-17.667C16.01,-16.802 16.604,-15.562 16.604,-13.937C16.604,-12.781 16.255,-11.729 15.563,-10.771C14.88,-9.812 13.906,-9.005 12.646,-8.354L15.229,-4.167C15.771,-3.26 16.292,-2.615 16.792,-2.229C17.302,-1.839 17.875,-1.646 18.5,-1.646L18.708,-1.375L18.5,0.146L15.083,0.479ZM9.979,-9.687C10.615,-9.948 11.198,-10.354 11.729,-10.896C12.255,-11.437 12.521,-12.271 12.521,-13.396C12.521,-14.479 12.156,-15.281 11.438,-15.812C10.714,-16.339 9.604,-16.604 8.104,-16.604C7.906,-16.604 7.776,-16.562 7.708,-16.479C7.635,-16.406 7.589,-16.234 7.563,-15.958C7.448,-13.943 7.375,-11.948 7.333,-9.979L9.979,-9.687Z" style="fill:rgb(50,55,59);fill-rule:nonzero;"/>
    </g>
    <g transform="matrix(1.32736,0,0,1.32736,126.58,386.56)">
        <g>
            <g>
                <path d="M2.063,-7.542C2.646,-7.542 3.073,-7.365 3.354,-7.021C3.646,-6.687 3.792,-6.234 3.792,-5.667L3.792,-1.812C3.792,-1.323 3.693,-0.937 3.5,-0.646C3.542,-0.547 3.594,-0.479 3.667,-0.437C3.734,-0.406 3.833,-0.396 3.958,-0.396L4.063,-0.396L4.063,0.333L3.917,0.333C3.469,0.333 3.156,0.172 2.979,-0.146C2.854,-0.073 2.714,-0.021 2.563,0.021C2.422,0.063 2.255,0.083 2.063,0.083C1.49,0.083 1.063,-0.089 0.771,-0.437C0.49,-0.781 0.354,-1.24 0.354,-1.812L0.354,-5.667C0.354,-6.234 0.49,-6.687 0.771,-7.021C1.063,-7.365 1.49,-7.542 2.063,-7.542ZM2.063,-6.792C1.771,-6.792 1.547,-6.693 1.396,-6.5C1.255,-6.302 1.188,-6.042 1.188,-5.708L1.188,-1.75C1.188,-1.417 1.255,-1.151 1.396,-0.958C1.547,-0.776 1.771,-0.687 2.063,-0.687C2.365,-0.687 2.589,-0.776 2.729,-0.958C2.88,-1.151 2.958,-1.417 2.958,-1.75L2.958,-5.708C2.958,-6.042 2.88,-6.302 2.729,-6.5C2.589,-6.693 2.365,-6.792 2.063,-6.792Z" style="fill:rgb(254,250,241);fill-rule:nonzero;"/>
            </g>
        </g>
    </g>
    <g transform="matrix(1.32736,0,0,1.32736,138.36,386.56)">
        <g>
            <g>
                <path d="M1.208,-1.75C1.208,-1.417 1.276,-1.151 1.417,-0.958C1.552,-0.776 1.776,-0.687 2.083,-0.687C2.385,-0.687 2.609,-0.776 2.75,-0.958C2.885,-1.151 2.958,-1.417 2.958,-1.75L2.958,-7.458L3.729,-7.458L3.729,-1.812C3.729,-1.24 3.589,-0.781 3.313,-0.437C3.047,-0.089 2.63,0.083 2.063,0.083C1.49,0.083 1.068,-0.089 0.792,-0.437C0.526,-0.781 0.396,-1.24 0.396,-1.812L0.396,-7.458L1.208,-7.458L1.208,-1.75Z" style="fill:rgb(254,250,241);fill-rule:nonzero;"/>
            </g>
        </g>
    </g>
    <g transform="matrix(1.32736,0,0,1.32736,149.928,386.56)">
        <g>
            <g>
                <rect x="0.417" y="-7.458" width="0.833" height="7.458" style="fill:rgb(254,250,241);fill-rule:nonzero;"/>
            </g>
        </g>
    </g>
    <g transform="matrix(1.32736,0,0,1.32736,158.253,386.56)">
        <g>
            <g>
                <path d="M2.042,-7.542C2.609,-7.542 3.031,-7.365 3.313,-7.021C3.589,-6.687 3.729,-6.234 3.729,-5.667L3.729,-5L2.938,-5L2.938,-5.708C2.938,-6.042 2.865,-6.302 2.729,-6.5C2.589,-6.693 2.365,-6.792 2.063,-6.792C1.755,-6.792 1.531,-6.693 1.396,-6.5C1.255,-6.302 1.188,-6.042 1.188,-5.708L1.188,-1.75C1.188,-1.417 1.255,-1.151 1.396,-0.958C1.531,-0.776 1.755,-0.687 2.063,-0.687C2.365,-0.687 2.589,-0.776 2.729,-0.958C2.865,-1.151 2.938,-1.417 2.938,-1.75L2.938,-2.729L3.729,-2.729L3.729,-1.812C3.729,-1.24 3.589,-0.781 3.313,-0.437C3.031,-0.089 2.609,0.083 2.042,0.083C1.469,0.083 1.047,-0.089 0.771,-0.437C0.49,-0.781 0.354,-1.24 0.354,-1.812L0.354,-5.667C0.354,-5.943 0.385,-6.198 0.458,-6.437C0.526,-6.672 0.63,-6.865 0.771,-7.021C0.906,-7.187 1.083,-7.312 1.292,-7.396C1.5,-7.49 1.75,-7.542 2.042,-7.542Z" style="fill:rgb(254,250,241);fill-rule:nonzero;"/>
            </g>
        </g>
    </g>
    <g transform="matrix(1.32736,0,0,1.32736,169.722,386.56)">
        <g>
            <g>
                <path d="M1.688,-3.25L1.25,-2.5L1.25,0L0.417,0L0.417,-7.458L1.25,-7.458L1.25,-3.854L3.25,-7.458L4.083,-7.458L2.188,-4.062L4.146,0L3.292,0L1.688,-3.25Z" style="fill:rgb(254,250,241);fill-rule:nonzero;"/>
            </g>
        </g>
    </g>
    <g transform="matrix(1.32736,0,0,1.32736,189.883,386.56)">
        <g>
            <g>
                <path d="M1.25,-3.354L1.25,0L0.417,0L0.417,-7.458L1.25,-7.458L1.25,-4.104L3.083,-4.104L3.083,-7.458L3.917,-7.458L3.917,0L3.083,0L3.083,-3.354L1.25,-3.354Z" style="fill:rgb(254,250,241);fill-rule:nonzero;"/>
            </g>
        </g>
    </g>
    <g transform="matrix(1.32736,0,0,1.32736,201.748,386.56)">
        <g>
            <g>
                <path d="M1.271,-1.5L0.979,0L0.208,0L1.646,-7.458L2.854,-7.458L4.271,0L3.438,0L3.167,-1.5L1.271,-1.5ZM1.375,-2.208L3.042,-2.208L2.188,-6.521L1.375,-2.208Z" style="fill:rgb(254,250,241);fill-rule:nonzero;"/>
            </g>
        </g>
    </g>
    <g transform="matrix(1.32736,0,0,1.32736,213.812,386.56)">
        <g>
            <g>
                <path d="M1.167,0L0.417,0L0.417,-7.458L1.479,-7.458L3.208,-2.062L3.208,-7.458L3.938,-7.458L3.938,0L3.063,0L1.167,-6.042L1.167,0Z" style="fill:rgb(254,250,241);fill-rule:nonzero;"/>
            </g>
        </g>
    </g>
    <g transform="matrix(1.32736,0,0,1.32736,225.691,386.56)">
        <g>
            <g>
                <path d="M2.167,-7.458C2.75,-7.458 3.177,-7.292 3.458,-6.958C3.734,-6.635 3.875,-6.187 3.875,-5.604L3.875,-1.854C3.875,-1.271 3.734,-0.812 3.458,-0.479C3.177,-0.156 2.75,0 2.167,0L0.417,0L0.417,-7.458L2.167,-7.458ZM2.167,-0.75C2.458,-0.75 2.672,-0.839 2.813,-1.021C2.964,-1.198 3.042,-1.464 3.042,-1.812L3.042,-5.646C3.042,-5.99 2.964,-6.255 2.813,-6.437C2.672,-6.615 2.448,-6.708 2.146,-6.708L1.25,-6.708L1.25,-0.75L2.167,-0.75Z" style="fill:rgb(254,250,241);fill-rule:nonzero;"/>
            </g>
        </g>
    </g>
    <g transform="matrix(1.32736,0,0,1.32736,237.386,386.56)">
        <g>
            <g>
                <path d="M1.75,-2.687L0.167,-7.458L1.042,-7.458L2.188,-3.792L3.375,-7.458L4.167,-7.458L2.563,-2.687L2.563,0L1.75,0L1.75,-2.687Z" style="fill:rgb(254,250,241);fill-rule:nonzero;"/>
            </g>
        </g>
    </g>
    <g transform="matrix(1.32736,0,0,1.32736,249.222,386.56)">
        <g>
            <g>
                <path d="M3.188,-0.021L2.375,-0.021L1.146,-5.958L1.146,0L0.417,0L0.417,-7.458L1.583,-7.458L2.813,-1.5L3.979,-7.458L5.146,-7.458L5.146,0L4.354,0L4.354,-6L3.188,-0.021Z" style="fill:rgb(254,250,241);fill-rule:nonzero;"/>
            </g>
        </g>
    </g>
    <g transform="matrix(1.32736,0,0,1.32736,262.715,386.56)">
        <g>
            <g>
                <path d="M1.271,-1.5L0.979,0L0.208,0L1.646,-7.458L2.854,-7.458L4.271,0L3.438,0L3.167,-1.5L1.271,-1.5ZM1.375,-2.208L3.042,-2.208L2.188,-6.521L1.375,-2.208Z" style="fill:rgb(254,250,241);fill-rule:nonzero;"/>
            </g>
        </g>
    </g>
    <g transform="matrix(1.32736,0,0,1.32736,274.779,386.56)">
        <g>
            <g>
                <path d="M1.167,0L0.417,0L0.417,-7.458L1.479,-7.458L3.208,-2.062L3.208,-7.458L3.938,-7.458L3.938,0L3.063,0L1.167,-6.042L1.167,0Z" style="fill:rgb(254,250,241);fill-rule:nonzero;"/>
            </g>
        </g>
    </g>
    <g transform="matrix(1.32736,0,0,1.32736,294.941,386.56)">
        <g>
            <g>
                <path d="M2,-7.542C2.568,-7.542 2.984,-7.365 3.25,-7.021C3.526,-6.687 3.667,-6.234 3.667,-5.667L3.667,-5.479L2.875,-5.479L2.875,-5.708C2.875,-6.052 2.802,-6.318 2.667,-6.5C2.526,-6.693 2.313,-6.792 2.021,-6.792C1.714,-6.792 1.49,-6.693 1.354,-6.5C1.229,-6.318 1.167,-6.062 1.167,-5.729C1.167,-5.448 1.229,-5.208 1.354,-5C1.479,-4.792 1.63,-4.594 1.813,-4.417C1.99,-4.25 2.193,-4.083 2.417,-3.917C2.635,-3.75 2.839,-3.562 3.021,-3.354C3.198,-3.156 3.354,-2.937 3.479,-2.687C3.604,-2.437 3.667,-2.135 3.667,-1.792C3.667,-1.219 3.526,-0.76 3.25,-0.417C2.984,-0.083 2.563,0.083 1.979,0.083C1.406,0.083 0.984,-0.083 0.708,-0.417C0.443,-0.76 0.313,-1.219 0.313,-1.792L0.313,-2.208L1.083,-2.208L1.083,-1.75C1.083,-1.401 1.151,-1.135 1.292,-0.958C1.443,-0.776 1.667,-0.687 1.958,-0.687C2.26,-0.687 2.484,-0.776 2.625,-0.958C2.76,-1.135 2.833,-1.401 2.833,-1.75C2.833,-2.026 2.771,-2.26 2.646,-2.458C2.521,-2.667 2.365,-2.854 2.188,-3.021C2.005,-3.198 1.802,-3.375 1.583,-3.542C1.375,-3.708 1.172,-3.885 0.979,-4.083C0.797,-4.292 0.646,-4.521 0.521,-4.771C0.396,-5.021 0.333,-5.318 0.333,-5.667C0.333,-6.25 0.464,-6.708 0.729,-7.042C1.005,-7.375 1.427,-7.542 2,-7.542Z" style="fill:rgb(254,250,241);fill-rule:nonzero;"/>
            </g>
        </g>
    </g>
    <g transform="matrix(1.32736,0,0,1.32736,306.296,386.56)">
        <g>
            <g>
                <path d="M3.083,-4.167L3.083,-3.417L1.25,-3.417L1.25,-0.75L3.5,-0.75L3.5,0L0.417,0L0.417,-7.458L3.5,-7.458L3.5,-6.708L1.25,-6.708L1.25,-4.167L3.083,-4.167Z" style="fill:rgb(254,250,241);fill-rule:nonzero;"/>
            </g>
        </g>
    </g>
    <g transform="matrix(1.32736,0,0,1.32736,317.481,386.56)">
        <g>
            <g>
                <path d="M2.083,-7.458C2.677,-7.458 3.104,-7.312 3.354,-7.021C3.615,-6.729 3.75,-6.302 3.75,-5.75L3.75,-5.146C3.75,-4.74 3.672,-4.406 3.521,-4.146C3.38,-3.896 3.151,-3.719 2.833,-3.625C3.167,-3.51 3.401,-3.323 3.542,-3.062C3.693,-2.797 3.771,-2.464 3.771,-2.062L3.771,-0.896C3.771,-0.729 3.776,-0.568 3.792,-0.417C3.802,-0.26 3.844,-0.125 3.917,0L3.063,0C3.021,-0.109 2.984,-0.229 2.958,-0.354C2.943,-0.479 2.938,-0.667 2.938,-0.917L2.938,-2.083C2.938,-2.5 2.839,-2.781 2.646,-2.937C2.464,-3.104 2.198,-3.187 1.854,-3.187L1.25,-3.187L1.25,0L0.417,0L0.417,-7.458L2.083,-7.458ZM1.875,-3.937C2.208,-3.937 2.464,-4.005 2.646,-4.146C2.839,-4.281 2.938,-4.562 2.938,-4.979L2.938,-5.687C2.938,-6.021 2.865,-6.271 2.729,-6.437C2.604,-6.615 2.38,-6.708 2.063,-6.708L1.25,-6.708L1.25,-3.937L1.875,-3.937Z" style="fill:rgb(254,250,241);fill-rule:nonzero;"/>
            </g>
        </g>
    </g>
    <g transform="matrix(1.32736,0,0,1.32736,329.148,386.56)">
        <g>
            <g>
                <path d="M1.063,-7.458L2.271,-0.979L3.479,-7.458L4.25,-7.458L2.854,0L1.625,0L0.208,-7.458L1.063,-7.458Z" style="fill:rgb(254,250,241);fill-rule:nonzero;"/>
            </g>
        </g>
    </g>
    <g transform="matrix(1.32736,0,0,1.32736,341.154,386.56)">
        <g>
            <g>
                <rect x="0.417" y="-7.458" width="0.833" height="7.458" style="fill:rgb(254,250,241);fill-rule:nonzero;"/>
            </g>
        </g>
    </g>
    <g transform="matrix(1.32736,0,0,1.32736,349.48,386.56)">
        <g>
            <g>
                <path d="M2.042,-7.542C2.609,-7.542 3.031,-7.365 3.313,-7.021C3.589,-6.687 3.729,-6.234 3.729,-5.667L3.729,-5L2.938,-5L2.938,-5.708C2.938,-6.042 2.865,-6.302 2.729,-6.5C2.589,-6.693 2.365,-6.792 2.063,-6.792C1.755,-6.792 1.531,-6.693 1.396,-6.5C1.255,-6.302 1.188,-6.042 1.188,-5.708L1.188,-1.75C1.188,-1.417 1.255,-1.151 1.396,-0.958C1.531,-0.776 1.755,-0.687 2.063,-0.687C2.365,-0.687 2.589,-0.776 2.729,-0.958C2.865,-1.151 2.938,-1.417 2.938,-1.75L2.938,-2.729L3.729,-2.729L3.729,-1.812C3.729,-1.24 3.589,-0.781 3.313,-0.437C3.031,-0.089 2.609,0.083 2.042,0.083C1.469,0.083 1.047,-0.089 0.771,-0.437C0.49,-0.781 0.354,-1.24 0.354,-1.812L0.354,-5.667C0.354,-5.943 0.385,-6.198 0.458,-6.437C0.526,-6.672 0.63,-6.865 0.771,-7.021C0.906,-7.187 1.083,-7.312 1.292,-7.396C1.5,-7.49 1.75,-7.542 2.042,-7.542Z" style="fill:rgb(254,250,241);fill-rule:nonzero;"/>
            </g>
        </g>
    </g>
    <g transform="matrix(1.32736,0,0,1.32736,360.948,386.56)">
        <g>
            <g>
                <path d="M3.083,-4.167L3.083,-3.417L1.25,-3.417L1.25,-0.75L3.5,-0.75L3.5,0L0.417,0L0.417,-7.458L3.5,-7.458L3.5,-6.708L1.25,-6.708L1.25,-4.167L3.083,-4.167Z" style="fill:rgb(254,250,241);fill-rule:nonzero;"/>
            </g>
        </g>
    </g>
    <g transform="matrix(1.32736,0,0,1.32736,372.133,386.56)">
        <g>
            <g>
                <path d="M2,-7.542C2.568,-7.542 2.984,-7.365 3.25,-7.021C3.526,-6.687 3.667,-6.234 3.667,-5.667L3.667,-5.479L2.875,-5.479L2.875,-5.708C2.875,-6.052 2.802,-6.318 2.667,-6.5C2.526,-6.693 2.313,-6.792 2.021,-6.792C1.714,-6.792 1.49,-6.693 1.354,-6.5C1.229,-6.318 1.167,-6.062 1.167,-5.729C1.167,-5.448 1.229,-5.208 1.354,-5C1.479,-4.792 1.63,-4.594 1.813,-4.417C1.99,-4.25 2.193,-4.083 2.417,-3.917C2.635,-3.75 2.839,-3.562 3.021,-3.354C3.198,-3.156 3.354,-2.937 3.479,-2.687C3.604,-2.437 3.667,-2.135 3.667,-1.792C3.667,-1.219 3.526,-0.76 3.25,-0.417C2.984,-0.083 2.563,0.083 1.979,0.083C1.406,0.083 0.984,-0.083 0.708,-0.417C0.443,-0.76 0.313,-1.219 0.313,-1.792L0.313,-2.208L1.083,-2.208L1.083,-1.75C1.083,-1.401 1.151,-1.135 1.292,-0.958C1.443,-0.776 1.667,-0.687 1.958,-0.687C2.26,-0.687 2.484,-0.776 2.625,-0.958C2.76,-1.135 2.833,-1.401 2.833,-1.75C2.833,-2.026 2.771,-2.26 2.646,-2.458C2.521,-2.667 2.365,-2.854 2.188,-3.021C2.005,-3.198 1.802,-3.375 1.583,-3.542C1.375,-3.708 1.172,-3.885 0.979,-4.083C0.797,-4.292 0.646,-4.521 0.521,-4.771C0.396,-5.021 0.333,-5.318 0.333,-5.667C0.333,-6.25 0.464,-6.708 0.729,-7.042C1.005,-7.375 1.427,-7.542 2,-7.542Z" style="fill:rgb(254,250,241);fill-rule:nonzero;"/>
            </g>
        </g>
    </g>
</svg>
